<svg width="15" height="15" viewBox="0 0 15 15" fill="none" xmlns="http://www.w3.org/2000/svg">
<path fill-rule="evenodd" clip-rule="evenodd" d="M7.01455 1.25855C7.94859 1.22355 8.88391 1.24961 9.81455 1.33655C10.2659 1.33081 10.7143 1.40985 11.1365 1.56955C11.719 1.84103 12.1871 2.30912 12.4585 2.89155C12.6187 3.314 12.6981 3.76279 12.6925 4.21455C12.6925 4.91455 12.7705 5.14755 12.7705 7.01455C12.8055 7.94859 12.7795 8.88391 12.6925 9.81455C12.6983 10.2659 12.6193 10.7143 12.4595 11.1365C12.1881 11.719 11.72 12.1871 11.1375 12.4585C10.7153 12.6183 10.2669 12.6973 9.81555 12.6915C9.11555 12.6915 8.88255 12.7695 7.01555 12.7695C6.08151 12.8045 5.14619 12.7785 4.21555 12.6915C3.76419 12.6973 3.31575 12.6183 2.89355 12.4585C2.31112 12.1871 1.84303 11.719 1.57155 11.1365C1.41116 10.7145 1.33145 10.266 1.33655 9.81455C1.33655 9.11455 1.25855 8.88155 1.25855 7.01455C1.22355 6.08051 1.24961 5.14519 1.33655 4.21455C1.33081 3.76319 1.40985 3.31475 1.56955 2.89255C1.70546 2.604 1.88979 2.34086 2.11455 2.11455C2.2971 1.84267 2.57453 1.64868 2.89255 1.57055C3.31469 1.4105 3.76312 1.33113 4.21455 1.33655C5.14519 1.24961 6.08051 1.22355 7.01455 1.25855ZM7.01455 0.0145492C6.05453 -0.019628 5.09331 0.00642308 4.13655 0.0925492C3.55204 0.0911738 2.97219 0.19657 2.42555 0.403549C1.95367 0.557608 1.5266 0.824694 1.18155 1.18155C0.824694 1.5266 0.557608 1.95367 0.403549 2.42555C0.159389 2.9612 0.0525045 3.54924 0.0925492 4.13655C0.00642308 5.09331 -0.019628 6.05453 0.0145492 7.01455C-0.019628 7.97457 0.00642308 8.93579 0.0925492 9.89255C0.0911738 10.4771 0.19657 11.0569 0.403549 11.6035C0.557608 12.0754 0.824694 12.5025 1.18155 12.8475C1.5266 13.2044 1.95367 13.4715 2.42555 13.6255C2.97219 13.8325 3.55204 13.9379 4.13655 13.9365C5.09331 14.0227 6.05453 14.0487 7.01455 14.0145C7.97457 14.0487 8.93579 14.0227 9.89255 13.9365C10.4771 13.9379 11.0569 13.8325 11.6035 13.6255C12.072 13.4641 12.4975 13.1982 12.8478 12.8478C13.1982 12.4975 13.4641 12.072 13.6255 11.6035C13.8325 11.0569 13.9379 10.4771 13.9365 9.89255C13.9365 9.11455 14.0145 8.88155 14.0145 7.01455C14.0487 6.05453 14.0227 5.09331 13.9365 4.13655C13.9379 3.55204 13.8325 2.97219 13.6255 2.42555C13.4715 1.95367 13.2044 1.5266 12.8475 1.18155C12.5025 0.824694 12.0754 0.557608 11.6035 0.403549C11.0569 0.19657 10.4771 0.0911738 9.89255 0.0925492C8.93579 0.00642308 7.97457 -0.019628 7.01455 0.0145492ZM7.01455 3.43655C6.54252 3.42871 6.07373 3.51589 5.63608 3.69293C5.19843 3.86996 4.80087 4.13322 4.46705 4.46705C4.13322 4.80087 3.86996 5.19843 3.69293 5.63608C3.51589 6.07373 3.42871 6.54252 3.43655 7.01455C3.43655 7.72221 3.6464 8.41398 4.03955 9.00238C4.43271 9.59078 4.99151 10.0494 5.64531 10.3202C6.2991 10.591 7.01852 10.6619 7.71258 10.5238C8.40665 10.3857 9.04419 10.045 9.54458 9.54458C10.045 9.04419 10.3857 8.40665 10.5238 7.71258C10.6619 7.01852 10.591 6.2991 10.3202 5.64531C10.0494 4.99151 9.59078 4.43271 9.00238 4.03955C8.41398 3.6464 7.72221 3.43655 7.01455 3.43655ZM7.01455 9.34755C6.70665 9.35311 6.40078 9.29656 6.11521 9.18128C5.82965 9.06601 5.57024 8.89437 5.35249 8.67661C5.13473 8.45886 4.96309 8.19945 4.84781 7.91388C4.73254 7.62832 4.67599 7.32245 4.68155 7.01455C4.67599 6.70665 4.73254 6.40078 4.84781 6.11521C4.96309 5.82965 5.13473 5.57024 5.35249 5.35249C5.57024 5.13473 5.82965 4.96309 6.11521 4.84781C6.40078 4.73254 6.70665 4.67599 7.01455 4.68155C7.32245 4.67599 7.62832 4.73254 7.91388 4.84781C8.19945 4.96309 8.45886 5.13473 8.67661 5.35249C8.89437 5.57024 9.06601 5.82965 9.18128 6.11521C9.29656 6.40078 9.35311 6.70665 9.34755 7.01455C9.35311 7.32245 9.29656 7.62832 9.18128 7.91388C9.06601 8.19945 8.89437 8.45886 8.67661 8.67661C8.45886 8.89437 8.19945 9.06601 7.91388 9.18128C7.62832 9.29656 7.32245 9.35311 7.01455 9.34755ZM10.7475 2.42555C10.5782 2.42555 10.4127 2.47575 10.272 2.56981C10.1312 2.66387 10.0215 2.79756 9.95671 2.95397C9.89192 3.11039 9.87497 3.2825 9.908 3.44855C9.94103 3.61459 10.0226 3.76712 10.1423 3.88683C10.262 4.00655 10.4145 4.08807 10.5806 4.1211C10.7466 4.15413 10.9187 4.13718 11.0751 4.07239C11.2315 4.0076 11.3652 3.89789 11.4593 3.75712C11.5533 3.61635 11.6035 3.45085 11.6035 3.28155C11.6017 3.05509 11.5109 2.83842 11.3508 2.67829C11.1907 2.51815 10.974 2.42738 10.7475 2.42555Z" fill="white"/>
</svg>
